# xmcd
#
# Track frame offsets:
#  150
#  23747
#  47545
#  79770
#  112772
#  143962
#  171345
#  191370
#  221775
#  248875
#
# Disc length: 3669 seconds
#
# Revision: 0
# Processed by: cddbd v1.4PL0 Copyright (c) Steve Scherf et al.
# Submitted via: AltoMP3_Maker 3.0
#
DISCID=820e530a
DTITLE=Misc - Tinh Khuc Tien Chien 1
DYEAR=1900
DGENRE=
TTITLE0=Tinh Nghe Si
TTITLE1=Cung Dan Xua
TTITLE2=Co Lang Gieng
TTITLE3=Trang Mo Ben Suoi
TTITLE4=Con Thuyen
TTITLE5=Giot Mua Thu
TTITLE6=Bon Mua Bon Mau
TTITLE7=Xuan va Tuoi Tre
TTITLE8=Du Am
TTITLE9=Tinh Yeu La Chiec Bong
EXTD=
EXTT0=
EXTT1=
EXTT2=
EXTT3=
EXTT4=
EXTT5=
EXTT6=
EXTT7=
EXTT8=
EXTT9=
PLAYORDER=
